<svg xmlns="http://www.w3.org/2000/svg" width="508.613" height="334.504" viewBox="0 0 508.613 334.504">
  <g id="PICTURE_REACT" data-name="PICTURE REACT" transform="translate(-2.141 -0.04)">
    <path id="Tracé_90" data-name="Tracé 90" d="M1083.158,779.828c5.937.047,13.792-.949,15.377-1.9,1.2-.731,1.68-3.365,1.842-4.58h.176s-.332,4.238-1.9,5.22-9.44,1.936-15.372,1.9c-1.713,0-2.307-.622-2.273-1.528C1081.231,779.477,1081.886,779.828,1083.158,779.828Z" transform="translate(-589.798 -446.362)" opacity="0.2"/>
    <path id="Soustraction_1" data-name="Soustraction 1" d="M207.361,262.412a44.859,44.859,0,0,1-11.537-1.642,72.038,72.038,0,0,1-12.636-4.808,108.808,108.808,0,0,1-13.39-7.8,150.865,150.865,0,0,1-13.8-10.6c-2.709-2.337-5.39-4.783-7.968-7.271-2.252,2.155-4.271,4.01-6.17,5.672a152.121,152.121,0,0,1-14.438,11.215,113.279,113.279,0,0,1-14.143,8.265,76.368,76.368,0,0,1-13.4,5.11A47.44,47.44,0,0,1,87.65,262.3a27.791,27.791,0,0,1-14.079-3.465,26.881,26.881,0,0,1-9.519-9.65,47.33,47.33,0,0,1-5.534-15.047,87.991,87.991,0,0,1-1.5-19.481,142.807,142.807,0,0,1,2.574-22.953c.674-3.519,1.453-7.06,2.316-10.526-2.669-.767-5.352-1.607-7.973-2.5-16.092-5.5-29.634-12.822-39.163-21.177A50.711,50.711,0,0,1,3.853,144.563,27.645,27.645,0,0,1,0,130.958a26.893,26.893,0,0,1,3.6-13.071,47.335,47.335,0,0,1,10.27-12.315A87.867,87.867,0,0,1,30,94.539a142.355,142.355,0,0,1,21.167-9.227c3.406-1.189,7.079-2.345,10.916-3.436-.816-3.223-1.549-6.51-2.179-9.767a148.285,148.285,0,0,1-2.792-23.383,90.963,90.963,0,0,1,1.326-19.872A48.081,48.081,0,0,1,63.86,13.514a26.512,26.512,0,0,1,9.5-9.79A27.352,27.352,0,0,1,87.231.287,46.547,46.547,0,0,1,99.64,2.132a76.966,76.966,0,0,1,13.665,5.39,117.819,117.819,0,0,1,14.5,8.715,163.322,163.322,0,0,1,14.911,11.82c1.651,1.472,3.3,2.991,4.888,4.514,2.378-2.293,4.849-4.561,7.342-6.739a156.669,156.669,0,0,1,14.13-10.993,112.349,112.349,0,0,1,13.707-8.107A73.375,73.375,0,0,1,195.7,1.717,44.717,44.717,0,0,1,207.445,0a26.6,26.6,0,0,1,13.47,3.34,27.29,27.29,0,0,1,9.9,10.284,50.6,50.6,0,0,1,5.593,16.223c2.3,12.628,1.629,28.443-1.932,45.735-.45,2.158-.943,4.337-1.467,6.479,3.179.914,6.373,1.921,9.492,2.99h.014a148.508,148.508,0,0,1,21.633,9.3,91.04,91.04,0,0,1,16.534,11.1,48.087,48.087,0,0,1,10.561,12.377,26.505,26.505,0,0,1,3.715,13.125,27.3,27.3,0,0,1-3.966,13.714,50.606,50.606,0,0,1-11.261,12.95c-9.792,8.3-23.826,15.619-40.585,21.171-1.789.592-3.635,1.168-5.486,1.713.672,2.675,1.268,5.327,1.77,7.883,3.3,16.682,3.748,32.071,1.292,44.5a50.714,50.714,0,0,1-5.733,15.933,27.641,27.641,0,0,1-9.844,10.15A27.119,27.119,0,0,1,207.361,262.412Zm14.1-78.73a295.382,295.382,0,0,1-39.946,6.17,297.349,297.349,0,0,1-24.722,31.39c2.47,2.376,4.966,4.651,7.418,6.763a138.314,138.314,0,0,0,12.309,9.487,99.108,99.108,0,0,0,11.55,6.827c7.255,3.6,13.9,5.51,19.211,5.51a14.924,14.924,0,0,0,7.541-1.763,16.069,16.069,0,0,0,5.805-6.553,40.82,40.82,0,0,0,3.848-11.757c1.984-10.738,1.492-24.2-1.423-38.917l.009-.038C222.6,188.493,222.063,186.1,221.465,183.682Zm-147.342.583h0c-.8,3.225-1.519,6.52-2.15,9.791-2.536,13.34-3.062,25.558-1.521,35.332,1.465,9.3,4.809,15.877,9.414,18.535a15.5,15.5,0,0,0,7.79,1.771,39.479,39.479,0,0,0,12.9-2.549c10.322-3.66,21.739-10.807,33.018-20.668,1.9-1.668,3.794-3.41,5.619-5.178a307.244,307.244,0,0,1-25.32-31.276,298.038,298.038,0,0,1-39.747-5.757Zm56.1,6.73a270.881,270.881,0,0,0,17.741,21.233l0,0h.009l0,0,0,0a268.848,268.848,0,0,0,17.318-21.295c-5.843.265-11.832.4-17.8.4C141.651,191.332,135.845,191.218,130.224,190.995ZM147.471,83.689c-8.962,0-18,.34-26.857,1.011-5.032,7.377-9.844,15.041-14.3,22.781s-8.68,15.737-12.544,23.777c3.845,8,8.078,16,12.581,23.768s9.355,15.459,14.423,22.861c8.6.56,17.588.845,26.705.845s18.209-.319,27.009-.949c4.944-7.431,9.7-15.111,14.147-22.828l.015-.019c4.49-7.771,8.755-15.8,12.676-23.872-3.97-8.011-8.247-15.974-12.715-23.668s-9.26-15.332-14.237-22.69C165.484,84.031,156.432,83.689,147.471,83.689ZM87.107,146.075c-3.736,8.857-6.954,17.617-9.563,26.036a268.887,268.887,0,0,0,27.16,4.37c-3.194-4.957-6.3-10.053-9.239-15.143C92.573,156.338,89.761,151.2,87.107,146.075Zm120.988-.451c-2.718,5.252-5.592,10.509-8.543,15.624-2.907,5.039-5.954,10.09-9.055,15.011a267.419,267.419,0,0,0,27.526-4.693A268.1,268.1,0,0,0,208.1,145.624ZM65.466,94.016c-3.4.958-6.813,2.032-10.152,3.194-12.829,4.471-23.676,10.121-31.369,16.337C16.629,119.458,12.6,125.641,12.6,130.958a16.069,16.069,0,0,0,2.76,8.309,40.8,40.8,0,0,0,8.245,9.223c8.3,7.1,20.192,13.415,34.4,18.272,2.4.817,4.848,1.584,7.281,2.278a307.767,307.767,0,0,1,14.551-37.778A303.354,303.354,0,0,1,65.466,94.016Zm164.167.185a296.778,296.778,0,0,1-14.357,36.819,296.1,296.1,0,0,1,14.936,37.365c1.841-.548,3.462-1.056,4.955-1.552,14.022-4.646,25.964-10.626,34.534-17.293a43.787,43.787,0,0,0,9.374-9.531,16.333,16.333,0,0,0,3.266-9.051,15.486,15.486,0,0,0-3.028-8.507,41.143,41.143,0,0,0-8.708-8.981c-7.947-6.28-19.084-11.987-32.207-16.5-2.72-.939-5.669-1.87-8.766-2.767h0Zm-39.083-7.85c3.081,4.832,6.1,9.795,8.965,14.75,2.918,5.034,5.773,10.2,8.486,15.349a269.579,269.579,0,0,0,9.44-25.4C209,89.124,199.951,87.542,190.55,86.352Zm-86.1-.024c-9.524,1.194-18.52,2.74-26.739,4.594,2.571,8.289,5.723,16.875,9.369,25.519,2.643-5.121,5.446-10.253,8.329-15.253H95.4C98.286,96.179,101.331,91.18,104.449,86.328Zm102.93-73.757c-5.374,0-12.161,2-19.63,5.776a123.634,123.634,0,0,0-24.517,16.991c-2.294,2-4.575,4.1-6.782,6.222a297.685,297.685,0,0,1,24.931,31.115,302.7,302.7,0,0,1,39.434,6.231c.474-1.932.921-3.9,1.329-5.862,2.98-14.471,3.766-27.8,2.273-38.554a43.76,43.76,0,0,0-3.573-12.881,16.339,16.339,0,0,0-6.213-7.352A14.386,14.386,0,0,0,207.379,12.571ZM87.3,12.862a15.13,15.13,0,0,0-7.63,1.774,15.458,15.458,0,0,0-5.844,6.877,41.128,41.128,0,0,0-3.408,12.034c-1.453,10.024-.812,22.521,1.853,36.142v0c.591,3.03,1.273,6.088,2.026,9.088a308.8,308.8,0,0,1,39.358-6.117,302.8,302.8,0,0,1,25.12-31.1c-1.564-1.493-3.011-2.829-4.423-4.081a129.864,129.864,0,0,0-26.084-18.375C100.294,15.023,93.044,12.862,87.3,12.862ZM147.543,71.11c5.783,0,11.645.138,17.426.41a271.223,271.223,0,0,0-17.356-20.949v0c-5.9,6.359-11.788,13.405-17.5,20.944C135.9,71.248,141.767,71.11,147.543,71.11Z" transform="translate(111.344 72.132)" fill="#53c1de"/>
    <path id="Tracé_93" data-name="Tracé 93" d="M562.18,456.79a26.34,26.34,0,1,1-26.34,26.34,26.34,26.34,0,0,1,26.34-26.34" transform="translate(-303.365 -280.04)" fill="#53c1de"/>
    <path id="Tracé_94" data-name="Tracé 94" d="M587.816,96.088a7.84,7.84,0,1,1-2.3-5.582A7.878,7.878,0,0,1,587.816,96.088Z" transform="translate(-322.395 -86.386)" fill="#3f3d56"/>
    <path id="Tracé_95" data-name="Tracé 95" d="M572.935,96.1a7.888,7.888,0,0,1,5.928-11.647,7.878,7.878,0,1,0,.669,15.695A7.878,7.878,0,0,1,572.935,96.1Z" transform="translate(-321.685 -84.41)" fill="#3f3d56"/>
    <rect id="Rectangle_5" data-name="Rectangle 5" width="21.105" height="32.923" transform="translate(247.696 20.675)" fill="#3f3d56"/>
    <rect id="Rectangle_6" data-name="Rectangle 6" width="21.105" height="32.923" transform="translate(247.696 20.675)" opacity="0.1"/>
    <path id="Tracé_96" data-name="Tracé 96" d="M479.906,379.61s-2.254,6.193-7.594,7.038a36.032,36.032,0,0,0-8.443,2.25l12.662,8.158,6.753-.845s.845-8.723,3.659-10.693S479.906,379.61,479.906,379.61Z" transform="translate(-265.551 -239.489)" fill="#d8b7bc"/>
    <path id="Tracé_97" data-name="Tracé 97" d="M681.988,379.61s2.254,6.193,7.593,7.038a36.031,36.031,0,0,1,8.443,2.25l-12.662,8.158-6.754-.845s-.845-8.723-3.659-10.693S681.988,379.61,681.988,379.61Z" transform="translate(-376.188 -239.489)" fill="#d8b7bc"/>
    <path id="Tracé_98" data-name="Tracé 98" d="M520.963,264.59a9.827,9.827,0,0,0-4.5,5.069s-6.17,1.97-9.568,7.313c0,0-4.224,4.5-4.784,6.754s-7.014,15.757-7.014,15.757-6.473,21.105-9.848,23.355c0,0,10.693-2.25,12.662,8.443,0,0,2.529,0,5.344-9.848s9.568-21.95,9.568-21.95,2.25-8.438,4.219-9.848,5.064-7.878,7.878-6.17,21.385-.285,21.385-.285,10.963,5.05,11.238,8.424,2.25,3.659,2.53,6.474,10.693,25.04,10.693,25.04,1.97,6.17,2.534,7.594c0,0,6.17-14.912,14.352-6.469,0,0-.285-5.629-2.814-9.017S571.332,285.4,571.332,285.4s-1.125-3.939-2.25-5.064S559.23,270.2,556.135,270.2c0,0-1.685-4.219-3.654-4.784Z" transform="translate(-276.784 -179.057)" fill="#3f3d56"/>
    <path id="Tracé_99" data-name="Tracé 99" d="M477.121,403.2a13.711,13.711,0,0,1-13.393-1.8,26.75,26.75,0,0,0-5.975-3.465c-2.985-1.205-6.554-2.1-7.641-.081-1.97,3.659,23.915,12.662,23.915,12.662S477.405,408.55,477.121,403.2Z" transform="translate(-258.266 -248.449)" fill="#3f3d56"/>
    <path id="Tracé_100" data-name="Tracé 100" d="M680.841,403.2a13.711,13.711,0,0,0,13.393-1.8,26.749,26.749,0,0,1,5.975-3.465c2.985-1.205,6.554-2.1,7.641-.081,1.969,3.659-23.915,12.662-23.915,12.662S680.556,408.55,680.841,403.2Z" transform="translate(-379.54 -248.449)" fill="#3f3d56"/>
    <path id="Tracé_101" data-name="Tracé 101" d="M571.14,163.7a3.307,3.307,0,0,1-1.262,2.553,6.844,6.844,0,0,1-2.335.555,5.439,5.439,0,0,0-3.711,3.213,8.311,8.311,0,0,0-.356,5.007,18.6,18.6,0,0,0,.722,2.4,22.491,22.491,0,0,0,3.365,6.592,28.009,28.009,0,0,0,4.414,4.162,10.181,10.181,0,0,0,3.27,2.031,10.324,10.324,0,0,0,2.563.342,5.736,5.736,0,0,0,3.132-.451c1.424-.821,1.846-2.634,2.62-4.091.655-1.234,1.633-2.283,2.245-3.54a13.994,13.994,0,0,0,.949-3.094l1.314-5.837c.475-2.121.911-4.513-.28-6.331a1.084,1.084,0,0,0-.351-.365,1.325,1.325,0,0,0-.721-.071,7.8,7.8,0,0,1-4.343-.992,1.865,1.865,0,0,1-.546-.427,2.239,2.239,0,0,1-.332-1.006,10.524,10.524,0,0,0-.607-2.112,1.422,1.422,0,0,0-.413-.636,1.494,1.494,0,0,0-.669-.223,54.318,54.318,0,0,0-6.137-.641c-.674-.033-1.689-.3-2.155.294S571.2,162.99,571.14,163.7Z" transform="translate(-317.764 -124.447)" fill="#c6a8ac"/>
    <path id="Tracé_103" data-name="Tracé 103" d="M558.795,172.814a12.781,12.781,0,0,0-3.384-.532c-2.715-.066-5.619.869-7.185,3.085a7.279,7.279,0,0,0-1.087,5.444,11.186,11.186,0,0,0,2.468,5.059,15.186,15.186,0,0,1,1.9,2.487,13.742,13.742,0,0,1,.978,4.746c.475,3.854,2.117,7.475,2.767,11.3s.09,8.267-2.933,10.7c-.508.408-1.125.84-1.168,1.49-.066,1.039,1.286,1.481,2.326,1.58,3.109.294,6.3.584,9.316-.218,1.248-.332,2.454-.85,3.726-1.087,3.227-.6,6.473.636,9.706,1.229a43,43,0,0,0,7.076.574,3.769,3.769,0,0,0,1.628-.214,1.305,1.305,0,0,0,.826-1.3,2.26,2.26,0,0,0-.56-.949c-1.633-2.017-2.131-4.7-2.577-7.257l-1.495-8.595c-.8-4.594-1.547-9.587.627-13.711,1.561-2.966,4.442-5.054,6.089-7.973a3.87,3.87,0,0,0-2.193-6.108,11.015,11.015,0,0,0-8.267-.3,33.734,33.734,0,0,1-.812,6.17l-.574,3.322a42.144,42.144,0,0,1-1.286,5.79,6.1,6.1,0,0,1-1.03,2.1,5.425,5.425,0,0,1-1.818,1.324,10.835,10.835,0,0,1-4.812,1.1,6.426,6.426,0,0,1-2.126-.327,9.017,9.017,0,0,1-2.928-2.06,4.8,4.8,0,0,1-.774-.84,4.708,4.708,0,0,1-.527-1.267,26.292,26.292,0,0,1-.906-3.55c-.142-.921-.19-1.856-.256-2.786A64.866,64.866,0,0,0,558.795,172.814Z" transform="translate(-309.229 -130.203)" fill="#76f7bf"/>
    <path id="Tracé_104" data-name="Tracé 104" d="M565.767,288.9s-1.125,14.917,5.909,17.446.845-12.382.845-12.382l-2.254-4.5Z" transform="translate(-319.054 -191.829)" fill="#d8b7bc"/>
    <path id="Tracé_105" data-name="Tracé 105" d="M605.968,288.9s1.125,14.917-5.909,17.446-.845-12.382-.845-12.382l2.254-4.5Z" transform="translate(-335.34 -191.829)" fill="#d8b7bc"/>
    <path id="Tracé_106" data-name="Tracé 106" d="M550.3,183.046l-2.25,3.659s1.97,12.662,2.25,14.912a29.539,29.539,0,0,0,1.13,4.784s.28,6.753.28,9.288a28.28,28.28,0,0,0,1.424,6.754,30.767,30.767,0,0,0,1.424,7.033c1.125,3.094,2.25,6.753,2.25,6.753s1.424-3.939,7.033,1.97a3.407,3.407,0,0,0,0-4.784s-1.685-7.594-1.685-11.537-3.1-22.781-3.1-22.781S557.043,177.683,550.3,183.046Z" transform="translate(-309.78 -135.76)" opacity="0.1"/>
    <path id="Tracé_107" data-name="Tracé 107" d="M549.12,182.42l-2.25,3.659s1.97,12.662,2.25,14.912a29.339,29.339,0,0,0,1.134,4.784s.28,6.753.28,9.283a28.342,28.342,0,0,0,1.424,6.753,30.621,30.621,0,0,0,1.424,7.033c1.125,3.1,2.254,6.754,2.254,6.754s1.424-3.939,7.033,1.97a3.408,3.408,0,0,0,0-4.779s-1.689-7.594-1.689-11.537-3.094-22.781-3.094-22.781S555.873,177.071,549.12,182.42Z" transform="translate(-309.16 -135.433)" fill="#76f7bf"/>
    <path id="Tracé_108" data-name="Tracé 108" d="M613.477,177.447l1.424,1.675a51.756,51.756,0,0,1-2,21.679l-1.125,10.973s-1.97,9.288-2.25,11.537-.28,2.53-.845,3.374a1.087,1.087,0,0,0,0,1.424l-1.69,6.17s-2.53-3.094-7.594.845c0,0-1.424-2.25-.285-4.219s1.125-2.814.845-3.379,1.125-3.374,1.125-3.939,1.984-13.5,1.984-13.5.845-12.662,1.69-16.881c.517-2.6.508-8.381.418-12.453a4.77,4.77,0,0,1,8.068-3.559A3.166,3.166,0,0,1,613.477,177.447Z" transform="translate(-336.376 -132.43)" opacity="0.1"/>
    <path id="Tracé_109" data-name="Tracé 109" d="M615.269,175.556l1.424,1.675a51.757,51.757,0,0,1-2,21.679l-1.125,10.973s-1.97,9.288-2.25,11.537-.285,2.534-.845,3.379a1.082,1.082,0,0,0,0,1.424l-1.68,6.189s-2.53-3.1-7.593.84c0,0-1.424-2.25-.28-4.219s1.125-2.814.845-3.374,1.125-3.379,1.125-3.939,1.97-13.507,1.97-13.507.845-12.662,1.69-16.886.28-16.881.28-16.881A6.5,6.5,0,0,1,615.269,175.556Z" transform="translate(-337.323 -131.118)" fill="#76f7bf"/>
    <circle id="Ellipse_8" data-name="Ellipse 8" cx="11.257" cy="11.257" r="11.257" transform="translate(247.833 18.003)" fill="#d8b7bc"/>
    <path id="Tracé_110" data-name="Tracé 110" d="M587.955,109.711a7.878,7.878,0,0,1-14.755.209,13.941,13.941,0,0,1,8.884-.195A7.958,7.958,0,0,1,587.955,109.711Z" transform="translate(-322.994 -97.35)" opacity="0.1"/>
    <path id="Tracé_111" data-name="Tracé 111" d="M572.916,110.914s-21.665-7.593-16.317,29.263c0,0,4.784,3.094,8.438,1.125,0,0-2.53-25.6,7.318-24.48s8.158,23.92,8.158,23.92,5.629,1.685,7.318-1.424S587.268,105.869,572.916,110.914Z" transform="translate(-313.826 -97.975)" fill="#3f3d56"/>
    <path id="Tracé_112" data-name="Tracé 112" d="M582.327,120.48c-6.758-.769-7.688,11.044-7.594,18.533.081-7.446,1.334-17.56,7.594-16.843,7.029.8,8.182,12.653,8.263,19.363C590.67,135.373,590,121.358,582.327,120.48Z" transform="translate(-323.796 -103.322)" opacity="0.1"/>
    <path id="Tracé_113" data-name="Tracé 113" d="M556.608,158.943a75.661,75.661,0,0,1-.84-9.743,72.2,72.2,0,0,0,.84,11.433s4.784,3.094,8.438,1.125c0,0-.057-.607-.123-1.628C561.283,161.967,556.608,158.943,556.608,158.943Z" transform="translate(-313.834 -118.43)" opacity="0.1"/>
    <path id="Tracé_114" data-name="Tracé 114" d="M615.248,164.49c-1.576,2.886-6.564,1.618-7.237,1.424-.033,1.044-.081,1.671-.081,1.671s5.629,1.685,7.318-1.424a12.992,12.992,0,0,0,.475-4.841A8.818,8.818,0,0,1,615.248,164.49Z" transform="translate(-341.241 -124.798)" opacity="0.1"/>
    <path id="Tracé_126" data-name="Tracé 126" d="M297.413,106.164l-8.661,5.491,5.258-9.563a8.543,8.543,0,0,0-5.221-1.87h-.142a10.239,10.239,0,0,1-1.794-.133l-2.938,1.86,1.258-2.288a10.469,10.469,0,0,1-5.135-3.9l-5.254,3.322,3.322-6.037A15.385,15.385,0,0,0,266.332,87.1c-5.463,0-10.327,3.251-13.469,8.315a10.08,10.08,0,0,1-8.9,4.8h-.294c-6.032,0-10.916,6.839-10.916,15.277s4.888,15.272,10.916,15.272a8.163,8.163,0,0,0,3.8-.949,15.758,15.758,0,0,1,13.217-.256,13.763,13.763,0,0,0,11.238.024,15.781,15.781,0,0,1,13.1.256,8.177,8.177,0,0,0,3.764.949c6.032,0,10.916-6.839,10.916-15.272a19.393,19.393,0,0,0-2.288-9.354Z" transform="translate(-144.119 -85.802)" fill="#f2f2f2"/>
    <path id="Tracé_127" data-name="Tracé 127" d="M281.056,150.528a16.136,16.136,0,0,0-9.359,1.016,13.763,13.763,0,0,1-11.234-.024,15.768,15.768,0,0,0-13.222.256,8.163,8.163,0,0,1-3.8.949c-5.358,0-9.815-5.4-10.745-12.52a10.242,10.242,0,0,0,2.677-2.886c3.161-5.059,8.006-8.32,13.469-8.32s10.27,3.213,13.412,8.22a10.342,10.342,0,0,0,8.9,4.893h.123C275.556,142.118,279.258,145.54,281.056,150.528Z" transform="translate(-144.093 -107.817)" opacity="0.03"/>
    <path id="Tracé_128" data-name="Tracé 128" d="M810.353,140.311l-4.3,2.738,2.624-4.746a4.272,4.272,0,0,0-2.615-.949h-.066a5.124,5.124,0,0,1-.9-.066l-1.467.949.617-1.168a5.22,5.22,0,0,1-2.563-1.941l-2.62,1.661,1.656-3.009a7.674,7.674,0,0,0-5.871-2.971,8.045,8.045,0,0,0-6.72,4.148,5.017,5.017,0,0,1-4.442,2.373h-.147c-3.009,0-5.448,3.412-5.448,7.594s2.439,7.617,5.448,7.617a4.091,4.091,0,0,0,1.9-.475,7.859,7.859,0,0,1,6.592-.128,6.891,6.891,0,0,0,5.6,0,7.869,7.869,0,0,1,6.535.128,4.087,4.087,0,0,0,1.9.475c3.009,0,5.448-3.408,5.448-7.617a9.625,9.625,0,0,0-1.163-4.613Z" transform="translate(-430.644 -108.768)" fill="#f2f2f2"/>
    <path id="Tracé_129" data-name="Tracé 129" d="M802.208,162.477a8.069,8.069,0,0,0-4.665.508,6.891,6.891,0,0,1-5.6,0,7.869,7.869,0,0,0-6.6.128,4.057,4.057,0,0,1-1.9.475c-2.677,0-4.9-2.691-5.363-6.241a5.187,5.187,0,0,0,1.338-1.424,7.514,7.514,0,0,1,13.407-.047,5.149,5.149,0,0,0,4.442,2.439h.071C799.47,158.282,801.3,159.99,802.208,162.477Z" transform="translate(-430.639 -119.786)" opacity="0.03"/>
    <path id="Tracé_130" data-name="Tracé 130" d="M248.306,283.4l6.958,4.4-4.214-7.665a6.872,6.872,0,0,1,4.2-1.495h.109a8.1,8.1,0,0,0,1.424-.1l2.349,1.49-1.02-1.832a8.438,8.438,0,0,0,4.115-3.123l4.21,2.667-2.629-4.836a12.309,12.309,0,0,1,9.43-4.746c4.381,0,8.277,2.6,10.8,6.644a8.068,8.068,0,0,0,7.119,3.849h.237c4.831,0,8.747,5.477,8.747,12.235s-3.915,12.24-8.747,12.24a6.578,6.578,0,0,1-3.052-.764,12.619,12.619,0,0,0-10.588-.2,11.049,11.049,0,0,1-9.017,0,12.643,12.643,0,0,0-10.5.2,6.6,6.6,0,0,1-3.014.745c-4.836,0-8.752-5.477-8.752-12.24A15.557,15.557,0,0,1,248.306,283.4Z" transform="translate(-244.327 -170.932)" fill="#f2f2f2"/>
    <path id="Tracé_131" data-name="Tracé 131" d="M277.89,318.954a12.985,12.985,0,0,1,7.5.816,11.048,11.048,0,0,0,9.017,0,12.629,12.629,0,0,1,10.593.2,6.559,6.559,0,0,0,3.047.764c4.3,0,7.864-4.324,8.609-10.028a8.278,8.278,0,0,1-2.145-2.316c-2.52-4.053-6.417-6.644-10.8-6.644s-8.225,2.572-10.745,6.587a8.277,8.277,0,0,1-7.119,3.915h-.109C282.294,312.22,279.333,314.963,277.89,318.954Z" transform="translate(-260.836 -188.581)" opacity="0.03"/>
  </g>
</svg>
